# xmcd
#
# Track frame offsets: 
#        150
#        18880
#        35197
#        50012
#        63657
#        80252
#        98780
#        121385
#        140015
#        148472
#        165487
#        188912
#
# Disc length: 2725 seconds
#
# Revision: 3
# Processed by: cddbd v1.4PL0 Copyright (c) Steve Scherf et al.
# Submitted via: ExactAudioCopy v0.95a3
#
DISCID=b00aa30c
DTITLE=Marisa Monte - Marisa Monte
DYEAR=1988
DGENRE=Blues
TTITLE0=Comida
TTITLE1=Bem que se quis
TTITLE2=Chocolate
TTITLE3=Ando meio desligado
TTITLE4=Preciso me encontrar
TTITLE5=O Xote das meninas
TTITLE6=Negro gato
TTITLE7=Lenda das sereias, Rainha do Mar
TTITLE8=South American Way
TTITLE9=(I heard it through the) Grapevine
TTITLE10=Bess you is my woman
TTITLE11=Speak low
EXTD=YEAR: 1988 ID3G:   0
EXTT0=
EXTT1=
EXTT2=
EXTT3=
EXTT4=
EXTT5=
EXTT6=
EXTT7=
EXTT8=
EXTT9=
EXTT10=
EXTT11=
PLAYORDER=
